<?xml version="1.0" standalone="no"?>
<!DOCTYPE svg PUBLIC "-//W3C//DTD SVG 20010904//EN"
 "http://www.w3.org/TR/2001/REC-SVG-20010904/DTD/svg10.dtd">
<svg version="1.0" xmlns="http://www.w3.org/2000/svg"
 width="164.000000pt" height="370.000000pt" viewBox="0 0 164.000000 370.000000"
 preserveAspectRatio="xMidYMid meet">

<g transform="translate(0.000000,370.000000) scale(0.100000,-0.100000)"
fill="#000000" stroke="none">
<path d="M757 3584 c-59 -117 -151 -449 -128 -463 17 -11 -15 -271 -35 -286
-15 -11 -33 -143 -34 -247 0 -41 3 -48 20 -48 19 0 20 -7 20 -140 0 -118 -2
-140 -15 -140 -12 0 -15 -17 -15 -92 0 -125 10 -198 26 -198 13 0 20 -50 27
-203 3 -60 1 -80 -9 -84 -8 -3 -14 -12 -14 -20 0 -9 -39 -57 -88 -107 -212
-222 -407 -593 -443 -844 -17 -120 -8 -289 17 -333 21 -36 89 -88 115 -89 22
0 79 28 107 53 31 29 49 96 57 218 7 100 10 109 65 224 61 126 134 235 158
235 8 0 11 -7 7 -19 -34 -107 -47 -352 -24 -436 12 -43 81 -116 108 -114 32 1
96 45 116 79 18 31 20 52 20 175 -1 114 -5 156 -24 225 -32 119 -37 125 -49
49 l-9 -64 -2 66 c-1 75 3 79 85 79 32 0 45 5 56 22 15 23 16 22 93 -52 107
-104 164 -184 239 -335 45 -92 67 -150 76 -199 6 -38 18 -82 25 -97 14 -25 95
-89 114 -89 5 0 29 12 55 26 78 43 91 81 90 249 -1 117 -6 156 -27 238 -68
256 -269 558 -513 770 -94 82 -95 82 -159 87 -36 3 -65 8 -65 13 0 4 0 68 0
142 l0 134 72 3 73 3 6 46 c4 25 8 88 10 140 l4 94 -57 3 -58 3 -1 -48 c-1
-48 -1 -48 -10 -13 -4 19 -7 40 -4 47 2 6 -3 14 -11 17 -11 4 -14 33 -14 146
0 87 4 140 10 140 6 0 10 57 10 150 0 93 -4 150 -10 150 -6 0 -10 55 -10 144
l0 145 55 -6 55 -6 0 29 c0 59 -100 418 -129 463 -7 11 -15 2 -34 -35z m-45
-627 l-8 -107 53 0 54 0 -3 -147 c-3 -122 -6 -147 -17 -145 -8 2 -32 0 -53 -3
l-39 -7 3 -141 3 -142 54 -3 c49 -3 53 -5 47 -25 -3 -12 -6 -77 -6 -144 l0
-123 -45 0 -45 0 0 -147 c0 -92 -4 -143 -9 -138 -6 6 -11 72 -12 148 l-2 137
-38 0 -39 0 0 48 c0 26 -3 91 -7 145 l-6 97 39 0 40 0 -1 145 0 145 -37 0 -38
0 0 93 c0 50 3 116 6 145 6 49 8 52 35 52 15 0 30 4 33 8 3 5 10 51 16 103 20
171 35 175 22 6z m7 -1364 c-1 -43 1 -157 5 -253 4 -112 3 -168 -3 -155 -5 11
-10 56 -10 100 -1 44 -6 132 -11 195 -11 117 -6 190 12 190 5 0 9 -32 7 -77z
m-133 0 c-20 -26 -65 -91 -100 -143 -35 -52 -83 -113 -106 -135 l-42 -40 22
45 c43 86 114 186 183 257 39 40 72 71 74 69 3 -2 -12 -26 -31 -53z m364 -183
c0 -39 15 -77 43 -103 45 -44 112 -139 135 -192 5 -11 12 -45 16 -76 l6 -57
-93 93 c-51 50 -103 108 -115 127 -12 20 -32 38 -44 41 -20 6 -21 10 -14 87 7
82 26 123 52 113 8 -3 14 -18 14 -33z m-244 -364 c1 0 -1 -30 -5 -66 -7 -65
-12 -63 -26 10 -4 19 -9 43 -12 53 -4 16 -1 18 19 12 12 -4 24 -8 24 -9z
m-515 -202 c-6 -60 -13 -149 -17 -198 -4 -64 -9 -85 -17 -77 -8 8 -8 47 1 145
12 131 31 250 39 243 2 -3 -1 -53 -6 -113z m1170 -91 c-6 -69 -14 -129 -17
-132 -8 -7 3 184 13 244 12 75 14 15 4 -112z"/>
<path d="M860 2844 c-2 -25 1 -289 3 -290 1 -1 26 -4 55 -7 l52 -6 0 134 c0
145 -7 165 -55 165 -13 0 -30 3 -39 6 -9 3 -16 2 -16 -2z"/>
</g>
</svg>
