<?xml version="1.0" standalone="no"?>
<!DOCTYPE svg PUBLIC "-//W3C//DTD SVG 20010904//EN"
 "http://www.w3.org/TR/2001/REC-SVG-20010904/DTD/svg10.dtd">
<svg version="1.0" xmlns="http://www.w3.org/2000/svg"
 width="110.000000pt" height="248.000000pt" viewBox="0 0 110.000000 248.000000"
 preserveAspectRatio="xMidYMid meet">

<g transform="translate(0.000000,248.000000) scale(0.100000,-0.100000)"
fill="#000000" stroke="none">
<path d="M912 2238 c-18 -18 -14 -47 13 -106 14 -30 25 -56 25 -58 0 -2 -184
-4 -410 -4 -399 0 -410 0 -420 -20 -7 -13 -7 -26 -1 -38 14 -26 98 -32 476
-32 l312 0 -44 -45 c-47 -50 -62 -87 -43 -110 24 -29 54 -16 120 51 36 36 86
78 112 92 42 24 48 31 48 60 0 25 -9 40 -39 68 -23 20 -47 55 -57 82 -10 26
-22 53 -27 60 -12 15 -49 16 -65 0z"/>
<path d="M890 1552 c-45 -24 -80 -76 -80 -117 0 -25 11 -45 43 -81 60 -66 69
-87 69 -153 1 -95 -71 -312 -138 -418 -113 -178 -282 -213 -354 -74 -20 38
-15 166 10 261 12 46 43 143 69 215 26 71 51 144 54 162 14 73 -44 175 -116
202 -86 33 -201 -2 -276 -83 -50 -55 -114 -185 -115 -236 -1 -31 2 -35 27 -38
36 -4 53 10 68 56 36 114 115 217 176 228 79 15 81 -39 12 -236 -92 -263 -101
-297 -103 -395 -1 -108 13 -153 66 -211 57 -62 124 -88 228 -88 71 -1 94 3
140 25 59 28 132 94 181 166 73 106 154 331 191 532 19 106 21 128 10 178 -21
99 -90 144 -162 105z"/>
</g>
</svg>
